# xmcd
#
# Track frame offsets: 
#        150
#        3525
#        22925
#        43495
#        62516
#        82892
#        103183
#        122196
#        144102
#        163986
#        181418
#        200880
#        217124
#        237215
#        254908
#
# Disc length: 3659 seconds
#
# Revision: 2
# Processed by: cddbd v1.5.2PL0 Copyright (c) Steve Scherf et al.
# Submitted via: ExactAudioCopy v0.99pb4
#
DISCID=df0e490f
DTITLE=La Familia - Nicaieri nu-i ca acasa
DYEAR=1998
DGENRE=Hip-Hop
TTITLE0=Intro
TTITLE1=Tupeu de borfas
TTITLE2=Bucuresti
TTITLE3=Pentru bagabontii care ma sustin
TTITLE4=Nu ma cunosti
TTITLE5=Uneori viata e o tarfa
TTITLE6=Asa-i frumos
TTITLE7=Unii nu inteleg
TTITLE8=Poveste de cartier
TTITLE9=Nu fi perversa
TTITLE10=Nicaieri nu-i ca acasa
TTITLE11=Cine a zis ca e usor
TTITLE12=Goana dupa aur
TTITLE13=Baieti de cartier (remix)
TTITLE14=Tupeu de borfas (Radio edit)
EXTD=YEAR: 1998
EXTT0=
EXTT1=
EXTT2=
EXTT3=
EXTT4=
EXTT5=
EXTT6=
EXTT7=
EXTT8=
EXTT9=
EXTT10=
EXTT11=
EXTT12=
EXTT13=
EXTT14=
PLAYORDER=
